<svg width="200" height="42" viewBox="0 0 200 42" fill="none" xmlns="http://www.w3.org/2000/svg">
<path d="M56.3807 3.15424C57.1672 4.06864 57.911 4.94207 58.6872 5.85362C59.113 5.30637 59.5356 4.74077 59.9817 4.19393C61.8713 1.87741 64.3682 0.742325 67.3321 0.577087C69.5917 0.451117 71.8492 0.532282 73.8966 1.61893C77.2226 3.38418 79.0144 6.23144 79.4778 9.8864C79.6634 11.3503 79.6971 12.8401 79.7008 14.3184C79.7209 22.425 79.7103 30.5316 79.7102 38.6382C79.7102 39.1566 79.7102 39.6749 79.7102 40.3275C79.2825 40.3275 78.9333 40.3274 78.5841 40.3275C75.3617 40.3277 72.139 40.3056 68.9171 40.345C68.1774 40.354 67.9802 40.1355 67.9823 39.4175C68.0053 31.4209 68.0007 23.4242 67.9888 15.4275C67.9878 14.7748 67.9127 14.1171 67.8124 13.4708C67.6517 12.4348 67.3002 12.1263 66.3893 12.1194C65.4394 12.1122 64.8403 12.5503 64.6816 13.4525C64.5776 14.0434 64.5233 14.6505 64.5227 15.2504C64.5149 23.0822 64.5207 30.914 64.523 38.7458C64.5232 39.2328 64.5231 39.7199 64.5231 40.2695C60.5288 40.2695 56.6558 40.2695 52.6638 40.2695C52.6638 39.9017 52.6638 39.556 52.6638 39.2103C52.663 30.9938 52.6645 22.7773 52.6552 14.5608C52.6547 14.0992 52.6743 13.5868 52.4861 13.1903C52.2885 12.774 51.9121 12.291 51.5057 12.1563C50.8797 11.949 50.1813 12.1622 49.9208 12.8644C49.6969 13.4679 49.5158 14.1285 49.5137 14.7644C49.4875 22.8984 49.4969 31.0325 49.4973 39.1665C49.4973 39.5166 49.4973 39.8667 49.4973 40.2723C45.5399 40.2723 41.6651 40.2723 37.7004 40.2723C37.6867 39.9665 37.6624 39.6754 37.6623 39.3842C37.6601 30.3433 37.6428 21.3024 37.6671 12.2615C37.6799 7.50076 39.6647 3.79673 44.0355 1.62887C47.5639 -0.121224 53.0423 0.000352174 56.3807 3.15424Z" fill="#EB1C25"/>
<path d="M194.461 7.21352C197.379 10.3045 199.264 13.8675 199.797 18.0096C200.548 23.8382 199.243 29.1602 195.39 33.761C192.444 37.2787 188.868 39.8699 184.304 40.862C178.294 42.1684 172.548 41.5278 167.392 37.983C162.303 34.484 159.029 29.7523 158.381 23.5594C157.8 18.0107 158.827 12.8009 162.597 8.40086C166.304 4.075 170.863 1.28765 176.689 0.700627C182.624 0.102537 187.959 1.39105 192.512 5.33379C193.179 5.91132 193.785 6.55759 194.461 7.21352ZM186.234 26.1007C187.515 24.0498 188.139 21.8592 187.668 19.4406C186.4 12.9385 179.104 9.86761 173.894 13.8936C169.544 17.2556 169.24 23.1975 172.576 26.929C176.376 31.1809 182.912 30.759 186.234 26.1007Z" fill="#EB1C25"/>
<path d="M151.849 17.7408C148.837 17.901 145.904 18.0426 142.974 18.2294C142.291 18.2729 141.949 18.0568 141.691 17.4208C140.539 14.5741 138.52 12.6218 135.384 12.1901C130.562 11.5264 126.545 14.1185 125.546 18.9419C125.009 21.5376 125.163 24.1268 126.793 26.3494C128.631 28.855 131.219 30.0135 134.354 29.8361C136.837 29.6956 138.992 28.8212 140.556 26.8078C141.617 25.4418 142.084 23.8492 142.328 22.1757C142.355 21.9899 142.368 21.802 142.384 21.6445C146.481 21.6445 150.541 21.6445 154.68 21.6445C154.306 24.6284 153.715 27.3939 152.51 30.0021C149.883 35.6871 145.628 39.5314 139.384 40.8664C133.231 42.1821 127.306 41.5554 121.96 37.9753C117.163 34.7624 114.323 30.2865 113.474 24.6023C112.906 20.7989 113.143 17.0494 114.572 13.4563C116.496 8.62109 120.014 5.15992 124.587 2.75559C128.416 0.741999 132.553 0.272409 136.841 0.693415C142.081 1.20789 146.443 3.39342 149.877 7.31642C152.421 10.2224 153.793 13.7026 154.658 17.5695C153.714 17.628 152.822 17.6832 151.849 17.7408Z" fill="#EB1C25"/>
<path d="M93.5498 39.4648C91.7086 38.8162 90.123 37.8714 88.829 36.5083C87.1559 34.746 86.3872 32.547 86.3533 30.2074C86.2621 23.9167 86.1498 17.6177 86.3788 11.3338C86.5697 6.09768 89.9797 2.66525 95.3874 1.80275C98.5078 1.30507 101.743 1.49987 104.927 1.40798C106.198 1.3713 107.471 1.40195 108.818 1.40195C108.818 5.16588 108.818 8.85237 108.818 12.6523C108.428 12.6523 108.076 12.6478 107.725 12.6531C105.311 12.6895 102.896 12.6859 100.485 12.7809C98.905 12.8431 98.1634 13.6696 98.3437 14.9866C98.4365 15.6643 98.7447 16.1817 99.5116 16.278C100.25 16.3708 100.988 16.5318 101.728 16.5447C103.834 16.5812 105.941 16.5575 108.121 16.5575C108.121 19.4398 108.121 22.2464 108.121 25.1586C107.771 25.1586 107.446 25.1586 107.122 25.1586C104.816 25.1586 102.51 25.1537 100.205 25.1636C99.8479 25.1651 99.4853 25.2063 99.1354 25.2775C98.0605 25.4963 97.6665 25.9761 97.6624 27.0223C97.6573 28.3307 97.9801 28.8028 99.1301 29.0188C99.6158 29.11 100.125 29.0975 100.624 29.0991C103.013 29.1066 105.402 29.1027 107.79 29.1029C108.116 29.1029 108.441 29.1029 108.829 29.1029C108.829 32.8739 108.829 36.5391 108.829 40.328C108.479 40.328 108.156 40.328 107.833 40.328C105.055 40.3274 102.277 40.303 99.4998 40.3344C97.4867 40.3572 95.5299 40.0737 93.5498 39.4648Z" fill="#EB1C25"/>
<path d="M31.9885 1.40137C32.8416 1.40137 33.6117 1.40137 34.5605 1.40137C33.9479 2.45061 33.4227 3.36847 32.8801 4.27613C30.0426 9.02248 27.2068 13.7698 24.3508 18.5052C24.0765 18.9601 24.0692 19.3118 24.3074 19.7859C27.4529 26.0469 30.5783 32.3177 33.7041 38.5884C33.9599 39.1016 34.1814 39.6316 34.4672 40.2603C34.1339 40.2866 33.8764 40.3246 33.619 40.3247C29.702 40.3263 25.7849 40.3079 21.8681 40.3362C21.2532 40.3407 20.9988 40.1099 20.7814 39.5831C18.0287 32.9143 15.2604 26.2518 12.4777 19.5952C12.245 19.0386 12.26 18.6143 12.5809 18.0718C15.6631 12.8616 18.7205 7.637 21.7504 2.39695C22.1649 1.68011 22.6032 1.35486 23.4887 1.37623C26.2928 1.44391 29.0997 1.40132 31.9885 1.40137Z" fill="#EB1C25"/>
<path d="M0 1.43753C3.74619 1.42895 7.4924 1.42549 11.2385 1.40499C11.6837 1.40256 11.8302 1.58598 11.8182 1.99212C11.8045 2.4585 11.812 2.92552 11.812 3.39227C11.813 15.3911 11.8145 27.3899 11.8136 39.3888C11.8135 39.6622 11.7866 39.9357 11.6522 40.2592C7.71535 40.3092 3.89849 40.3092 0 40.3092C0 27.2698 0 14.3537 0 1.43753Z" fill="#EB1C25"/>
</svg>
